<?xml version="1.0" encoding="UTF-8" standalone="no"?>
<svg
   data-v-423bf9ae=""
   viewBox="0 0 1446.585851185365 1652"
   class="iconAbove"
   version="1.1"
   id="svg3"
   sodipodi:docname="default-monochrome.svg"
   inkscape:version="1.3.2 (091e20e, 2023-11-25, custom)"
   xmlns:inkscape="http://www.inkscape.org/namespaces/inkscape"
   xmlns:sodipodi="http://sodipodi.sourceforge.net/DTD/sodipodi-0.dtd"
   xmlns:xlink="http://www.w3.org/1999/xlink"
   xmlns="http://www.w3.org/2000/svg"
   xmlns:svg="http://www.w3.org/2000/svg">
  <sodipodi:namedview
     id="namedview3"
     pagecolor="#ffffff"
     bordercolor="#000000"
     borderopacity="0.25"
     inkscape:showpageshadow="2"
     inkscape:pageopacity="0.0"
     inkscape:pagecheckerboard="0"
     inkscape:deskcolor="#d1d1d1"
     inkscape:zoom="0.44491525"
     inkscape:cx="723.73333"
     inkscape:cy="826"
     inkscape:window-width="1920"
     inkscape:window-height="991"
     inkscape:window-x="2425"
     inkscape:window-y="-9"
     inkscape:window-maximized="1"
     inkscape:current-layer="svg3" />
  <!---->
  <!---->
  <!---->
  <defs
     data-v-423bf9ae=""
     id="defs2">
    <linearGradient
       data-v-423bf9ae=""
       gradientTransform="rotate(25)"
       id="c1eb50f1-8c81-4f0f-a1af-3c4468cd40ec"
       x1="0%"
       y1="0%"
       x2="100%"
       y2="0%">
      <stop
         data-v-423bf9ae=""
         offset="0%"
         style="stop-color: rgb(30, 11, 54); stop-opacity: 1;"
         id="stop1" />
      <stop
         data-v-423bf9ae=""
         offset="100%"
         style="stop-color: rgb(202, 55, 130); stop-opacity: 1;"
         id="stop2" />
    </linearGradient>
    <linearGradient
       inkscape:collect="always"
       xlink:href="#c1eb50f1-8c81-4f0f-a1af-3c4468cd40ec"
       id="linearGradient5"
       gradientTransform="scale(0.95720254,1.044711)"
       x1="87.034871"
       y1="64.633193"
       x2="447.85715"
       y2="64.633193"
       gradientUnits="userSpaceOnUse" />
    <linearGradient
       inkscape:collect="always"
       xlink:href="#c1eb50f1-8c81-4f0f-a1af-3c4468cd40ec"
       id="linearGradient6"
       gradientTransform="scale(0.54644197,1.8300205)"
       x1="359.56242"
       y1="62.663233"
       x2="525.50319"
       y2="62.663233"
       gradientUnits="userSpaceOnUse" />
    <linearGradient
       inkscape:collect="always"
       xlink:href="#c1eb50f1-8c81-4f0f-a1af-3c4468cd40ec"
       id="linearGradient7"
       gradientTransform="scale(0.95720254,1.044711)"
       x1="87.034871"
       y1="64.633193"
       x2="447.85715"
       y2="64.633193"
       gradientUnits="userSpaceOnUse" />
  </defs>
  <g
     data-v-423bf9ae=""
     id="92bb2f71-a565-49a2-97ea-3e4b8f798e71"
     transform="matrix(4.1883887,0,0,4.1883887,-346.66995,-266.97324)"
     stroke="none"
     fill="url(#c1eb50f1-8c81-4f0f-a1af-3c4468cd40ec)"
     style="fill:url(#linearGradient7)">
    <path
       d="m 422.668,138.812 c -0.197,-2.607 -0.272,-5.217 -0.353,-7.981 l -0.018,-0.603 C 421.596,106.035 404.738,86.214 383.484,84.018 368.881,71.217 348.808,65.143 328.594,68.382 l -211.568,33.876 -2.885,0.462 -30.831,4.936 v 5.116 c 0,33.126 12.99,56.987 38.609,70.918 20.332,11.056 48.458,16.205 88.514,16.205 h 33.615 c 4.143,0 7.798,2.001 10.031,5.49 2.232,3.489 2.518,7.646 0.782,11.407 l -26.682,57.836 c -13.118,3.178 -25.453,9.538 -36.36,18.871 -14.438,12.353 -25.518,29.515 -31.521,48.7 H 131.36 v 47.173 c 0,28.749 20.048,52.64 45.308,54.845 l 0.18,0.261 h 142.011 l 1.792,-2.551 c 13.116,-18.669 20.049,-41.134 20.049,-64.967 0,-5.163 -0.337,-10.272 -0.991,-15.312 h 65.98 V 251.167 c 4.789,-1.539 9.226,-4.346 12.984,-8.291 6.06,-6.358 9.611,-14.92 10.001,-24.11 l 0.016,-0.354 z M 95.423,117.87 l 18.719,-2.998 v 19.504 h -16.48 c -1.23,-5.105 -1.974,-10.6 -2.239,-16.506 z m 47.937,236.329 h 15.974 c -1.88,8.047 -8.055,14.453 -15.974,16.661 z m 169.203,78.279 H 183.066 l -0.04,-0.056 -3.001,-0.043 C 159.808,432.09 143.36,412.797 143.36,389.372 v -7.085 c 15.746,-2.868 27.724,-16.675 27.724,-33.236 v -0.983 c 5.152,-17.975 15.232,-34.065 28.537,-45.45 6.709,-5.74 14.031,-10.171 21.759,-13.248 a 71.543,71.543 0 0 1 15.144,-4.18 71.661,71.661 0 0 1 11.351,-0.918 c 9.625,0 19.049,1.927 28.01,5.728 l 8.343,3.538 v -35.944 c 21.395,2.934 37.927,21.331 37.927,43.519 v 39.262 l 0.36,0.993 a 101.526,101.526 0 0 1 2.607,8.282 102.69,102.69 0 0 1 2.459,12 106.488,106.488 0 0 1 1.119,15.312 c -10e-4,20.268 -5.57,39.394 -16.137,55.516 z m 81.125,-82.83 h -56.205 c -0.921,-3.846 -2.015,-7.645 -3.33,-11.372 v -37.165 c 0,-30.838 -25.089,-55.928 -55.927,-55.928 h -6 v 30.729 a 82.96,82.96 0 0 0 -24.353,-3.641 c -1.837,0 -3.663,0.08 -5.481,0.197 l 23.366,-50.649 a 23.804,23.804 0 0 0 -1.571,-22.903 23.806,23.806 0 0 0 -20.139,-11.021 h -33.615 c -60.763,0 -95.289,-12.743 -108.64,-41.519 h 24.348 V 112.95 l 204.35,-32.72 c 12.521,-2.004 24.968,0.332 35.464,6.089 -15.49,5.82 -27.494,21.241 -29.67,40.25 l -0.087,0.762 c -0.31,2.708 -0.603,5.265 -1.011,7.812 l -12.739,79.38 -0.07,0.696 c -0.822,19.345 12.616,35.683 29.956,36.42 l 41.354,0.833 z m 16.298,-115.051 a 20.364,20.364 0 0 1 -4.298,3.442 c -2.917,1.748 -6.142,2.624 -9.443,2.483 l -2.557,-0.052 -40.907,-0.824 c -10.605,-0.491 -18.81,-11.022 -18.427,-23.585 l 12.681,-79.017 c 0.452,-2.814 0.774,-5.628 1.085,-8.35 l 0.087,-0.759 c 2.043,-17.847 15.155,-31.505 30.324,-32.096 a 26.442,26.442 0 0 1 2.145,-0.006 c 6.775,0.288 13.003,3.175 17.986,7.818 6.835,6.37 11.326,16.051 11.642,26.923 l 0.017,0.6 c 0.08,2.78 0.163,5.654 0.382,8.541 l 5.967,78.876 c -0.338,6.157 -2.703,11.829 -6.684,16.006 z"
       id="path2"
       style="fill:url(#linearGradient5)" />
    <path
       d="m 204.361,380 h 57.9 v 12 h -57.9 z m 55.781,38.35 -55.93,-10.736 2.263,-11.785 55.93,10.735 z M 196.48,339.601 h 16 v 17.962 h -16 z m 70.677,-224.926 h 20 v 21.962 h -20 z"
       id="path3"
       style="fill:url(#linearGradient6)" />
  </g>
  <!---->
</svg>
