<?xml version="1.0" encoding="UTF-8" standalone="no"?>
<svg
   data-v-fde0c5aa=""
   viewBox="0 0 260 124.3471"
   class="iconAbove"
   version="1.1"
   id="svg4"
   sodipodi:docname="default1.2.svg"
   width="260"
   height="124.3471"
   inkscape:version="1.3.2 (091e20e, 2023-11-25, custom)"
   xmlns:inkscape="http://www.inkscape.org/namespaces/inkscape"
   xmlns:sodipodi="http://sodipodi.sourceforge.net/DTD/sodipodi-0.dtd"
   xmlns:xlink="http://www.w3.org/1999/xlink"
   xmlns="http://www.w3.org/2000/svg"
   xmlns:svg="http://www.w3.org/2000/svg">
  <sodipodi:namedview
     id="namedview4"
     pagecolor="#ffffff"
     bordercolor="#000000"
     borderopacity="0.25"
     inkscape:showpageshadow="2"
     inkscape:pageopacity="0.0"
     inkscape:pagecheckerboard="0"
     inkscape:deskcolor="#d1d1d1"
     showgrid="false"
     inkscape:zoom="2.45"
     inkscape:cx="129.79592"
     inkscape:cy="62.244898"
     inkscape:window-width="1920"
     inkscape:window-height="991"
     inkscape:window-x="2425"
     inkscape:window-y="-9"
     inkscape:window-maximized="1"
     inkscape:current-layer="svg4" />
  <!---->
  <defs
     data-v-fde0c5aa=""
     id="defs1">
    <!---->
    <linearGradient
       inkscape:collect="always"
       xlink:href="#736c27c0-f7a8-4ff5-a811-e4bc485cdae0"
       id="linearGradient4"
       gradientTransform="scale(0.95720254,1.044711)"
       x1="87.034871"
       y1="64.633193"
       x2="447.85715"
       y2="64.633193"
       gradientUnits="userSpaceOnUse" />
    <linearGradient
       inkscape:collect="always"
       xlink:href="#736c27c0-f7a8-4ff5-a811-e4bc485cdae0"
       id="linearGradient5"
       gradientTransform="scale(0.54644197,1.8300205)"
       x1="359.56242"
       y1="62.663233"
       x2="525.50319"
       y2="62.663233"
       gradientUnits="userSpaceOnUse" />
    <linearGradient
       inkscape:collect="always"
       xlink:href="#736c27c0-f7a8-4ff5-a811-e4bc485cdae0"
       id="linearGradient6"
       gradientTransform="scale(0.95720254,1.044711)"
       x1="87.034871"
       y1="64.633193"
       x2="447.85715"
       y2="64.633193"
       gradientUnits="userSpaceOnUse" />
  </defs>
  <rect
     data-v-fde0c5aa=""
     fill="transparent"
     x="-20"
     y="-15.173386"
     width="300"
     height="146.12245"
     class="logo-background-square"
     id="rect1"
     style="fill:none;stroke-width:0.697907" />
  <defs
     data-v-fde0c5aa=""
     id="defs2">
    <!---->
  </defs>
  <g
     data-v-fde0c5aa=""
     id="dffbf601-84e9-4c56-b689-627686f68a8f"
     fill="#000000"
     transform="matrix(2.4246947,0,0,2.4246947,-2.8126461,82.37564)"
     style="fill:#ffffff">
    <path
       d="M 1.16,13.64 V 3.63 h 4.1 q 1.32,0 2.34,0.32 1.01,0.33 1.7,0.93 0.69,0.61 1.05,1.47 0.36,0.86 0.36,1.94 v 0 q 0,0.62 -0.13,1.27 -0.13,0.64 -0.42,1.24 -0.29,0.6 -0.74,1.12 -0.45,0.51 -1.09,0.9 Q 7.69,13.21 6.85,13.43 6,13.65 4.94,13.65 v 0 z M 3.94,5.26 v 6.75 H 5.2 q 0.69,0 1.18,-0.26 0.5,-0.27 0.83,-0.73 Q 7.53,10.55 7.69,9.9 7.85,9.26 7.85,8.5 v 0 Q 7.85,7.66 7.66,7.05 7.48,6.44 7.13,6.04 6.77,5.65 6.25,5.46 5.74,5.26 5.07,5.26 v 0 z m 11.83,8.52 v 0 q -0.98,0 -1.71,-0.29 -0.72,-0.29 -1.19,-0.78 -0.47,-0.49 -0.7,-1.14 -0.23,-0.65 -0.23,-1.36 v 0 q 0,-0.83 0.3,-1.55 0.3,-0.72 0.87,-1.26 0.56,-0.53 1.36,-0.83 0.8,-0.31 1.8,-0.31 v 0 q 0.96,0 1.68,0.29 0.73,0.28 1.2,0.77 0.48,0.49 0.72,1.14 0.24,0.65 0.24,1.38 v 0 q 0,0.85 -0.31,1.58 -0.31,0.72 -0.88,1.25 -0.57,0.52 -1.37,0.82 -0.8,0.29 -1.78,0.29 z m 0.29,-1.61 v 0 q 0.26,0 0.49,-0.12 0.23,-0.11 0.4,-0.37 0.17,-0.25 0.26,-0.64 0.1,-0.38 0.1,-0.93 v 0 Q 17.31,9.6 17.22,9.19 17.13,8.78 16.96,8.49 16.8,8.2 16.55,8.04 16.3,7.88 15.98,7.88 v 0 q -0.55,0 -0.9,0.51 -0.34,0.51 -0.34,1.56 v 0 q 0,0.54 0.09,0.95 0.1,0.41 0.27,0.7 0.18,0.28 0.42,0.42 0.24,0.15 0.54,0.15 z m 8.29,-3.61 v 3.43 q 0.26,0.12 0.46,0.15 0.2,0.03 0.33,0.03 v 0 q 0.41,0 0.71,-0.19 0.3,-0.19 0.5,-0.51 0.19,-0.31 0.29,-0.7 0.09,-0.39 0.09,-0.8 v 0 Q 26.73,9.5 26.64,9.14 26.55,8.78 26.39,8.53 26.23,8.29 26.01,8.16 25.79,8.03 25.52,8.03 v 0 q -0.29,0 -0.61,0.14 -0.32,0.14 -0.56,0.39 z M 23.98,6.4 24.27,7.48 Q 24.53,7.25 24.8,7.03 25.07,6.81 25.37,6.64 25.67,6.47 26,6.36 q 0.33,-0.1 0.71,-0.1 v 0 q 0.65,0 1.18,0.3 0.52,0.29 0.88,0.77 0.36,0.48 0.56,1.1 0.19,0.61 0.19,1.26 v 0 q 0,0.86 -0.32,1.6 -0.32,0.75 -0.88,1.3 -0.55,0.56 -1.3,0.87 -0.75,0.32 -1.61,0.32 v 0 q -0.3,0 -0.6,-0.04 -0.3,-0.03 -0.46,-0.1 v 0 3.67 H 21.62 V 6.4 Z m 13.62,5.33 v 1.11 q -0.41,0.29 -0.82,0.47 -0.4,0.18 -0.79,0.29 -0.38,0.1 -0.75,0.14 -0.38,0.04 -0.73,0.04 v 0 q -0.93,0 -1.66,-0.23 -0.73,-0.24 -1.23,-0.68 -0.5,-0.45 -0.75,-1.09 -0.26,-0.64 -0.26,-1.46 v 0 q 0,-0.97 0.34,-1.72 0.34,-0.75 0.91,-1.27 0.56,-0.52 1.31,-0.79 0.74,-0.28 1.56,-0.28 v 0 q 0.73,0 1.33,0.22 0.6,0.21 1.04,0.63 0.43,0.42 0.67,1.05 0.24,0.62 0.24,1.42 v 0 q 0,0.31 -0.03,0.52 -0.03,0.22 -0.05,0.33 v 0 h -4.52 q 0,0.45 0.16,0.75 0.15,0.3 0.44,0.49 0.29,0.18 0.69,0.27 0.41,0.08 0.92,0.08 v 0 q 0.41,0 0.94,-0.06 0.52,-0.07 1.04,-0.23 z M 33.41,9.58 h 2.14 Q 35.55,9.13 35.47,8.81 35.4,8.48 35.26,8.27 35.13,8.07 34.94,7.97 34.74,7.88 34.51,7.88 v 0 Q 34,7.88 33.7,8.3 33.41,8.73 33.41,9.58 Z M 45.16,5.26 v 8.38 H 42.38 V 3.63 h 3.89 q 1.06,0 1.85,0.23 0.79,0.23 1.32,0.65 0.52,0.43 0.79,1.02 0.26,0.6 0.26,1.32 v 0 q 0,0.8 -0.28,1.45 -0.28,0.66 -0.78,1.12 -0.5,0.46 -1.18,0.71 -0.67,0.25 -1.46,0.25 v 0 q -0.11,0 -0.22,0 -0.11,-0.01 -0.24,-0.03 v 0 l 0.13,-1.48 q 0.03,0.01 0.11,0.01 0.08,0.01 0.13,0.01 v 0 q 0.32,0 0.53,-0.15 0.21,-0.15 0.34,-0.4 0.13,-0.25 0.19,-0.55 0.05,-0.31 0.05,-0.63 v 0 Q 47.81,6.64 47.69,6.28 47.58,5.92 47.36,5.69 47.14,5.47 46.83,5.37 46.53,5.26 46.14,5.26 v 0 z m 13.23,6.47 v 1.11 q -0.41,0.29 -0.82,0.47 -0.4,0.18 -0.79,0.29 -0.38,0.1 -0.76,0.14 -0.37,0.04 -0.72,0.04 v 0 q -0.93,0 -1.66,-0.23 -0.73,-0.24 -1.23,-0.68 -0.5,-0.45 -0.75,-1.09 -0.26,-0.64 -0.26,-1.46 v 0 q 0,-0.97 0.34,-1.72 0.34,-0.75 0.9,-1.27 0.57,-0.52 1.32,-0.79 0.74,-0.28 1.56,-0.28 v 0 q 0.73,0 1.33,0.22 0.6,0.21 1.03,0.63 0.44,0.42 0.68,1.05 0.24,0.62 0.24,1.42 v 0 q 0,0.31 -0.03,0.52 -0.03,0.22 -0.06,0.33 v 0 H 54.2 q 0,0.45 0.16,0.75 0.15,0.3 0.44,0.49 0.28,0.18 0.69,0.27 0.41,0.08 0.91,0.08 v 0 q 0.42,0 0.95,-0.06 0.52,-0.07 1.04,-0.23 z M 54.2,9.58 h 2.13 Q 56.33,9.13 56.26,8.81 56.18,8.48 56.05,8.27 55.92,8.07 55.72,7.97 55.53,7.88 55.3,7.88 v 0 q -0.52,0 -0.81,0.42 -0.29,0.43 -0.29,1.28 z m 6.66,1.49 V 8.01 H 59.41 L 59.58,6.89 Q 59.94,6.75 60.21,6.62 60.48,6.5 60.68,6.37 60.89,6.23 61.04,6.08 61.2,5.92 61.35,5.71 61.5,5.5 61.66,5.22 61.82,4.94 62.04,4.57 v 0 H 63.4 V 6.4 h 2.55 l -0.36,1.61 h -2 v 2.78 q 0,0.68 0.35,0.95 0.35,0.28 1.02,0.28 v 0 q 0.23,0 0.49,-0.04 0.26,-0.04 0.5,-0.14 v 0 1.11 q -0.56,0.43 -1.26,0.63 -0.7,0.2 -1.38,0.2 v 0 q -0.69,0 -1.15,-0.19 Q 61.69,13.4 61.4,13.05 61.11,12.69 60.99,12.2 60.86,11.7 60.86,11.07 Z m 12,1.08 v 0 q 0.27,0 0.54,-0.06 0.27,-0.05 0.48,-0.18 0.21,-0.13 0.34,-0.34 0.13,-0.2 0.13,-0.5 v 0 q 0,-0.36 -0.19,-0.62 Q 73.97,10.2 73.66,10 73.36,9.81 72.97,9.65 72.58,9.48 72.17,9.3 71.76,9.13 71.37,8.9 70.98,8.68 70.67,8.37 70.36,8.05 70.17,7.62 69.99,7.18 69.99,6.58 v 0 q 0,-0.7 0.27,-1.28 0.27,-0.57 0.78,-0.97 0.5,-0.4 1.23,-0.62 0.72,-0.22 1.62,-0.22 v 0 q 0.23,0 0.56,0.02 0.32,0.02 0.69,0.06 0.36,0.04 0.75,0.1 0.38,0.07 0.73,0.16 v 0 L 76.23,5.58 76.11,5.63 Q 75.81,5.5 75.5,5.4 75.2,5.3 74.9,5.24 74.61,5.18 74.36,5.15 74.1,5.13 73.9,5.13 v 0 q -0.61,0 -0.97,0.24 -0.37,0.25 -0.37,0.74 v 0 q 0,0.36 0.19,0.6 0.19,0.25 0.5,0.44 0.3,0.19 0.7,0.35 0.39,0.16 0.8,0.34 0.4,0.18 0.8,0.4 0.39,0.22 0.7,0.54 0.31,0.32 0.49,0.76 0.19,0.44 0.19,1.05 v 0 q 0,0.72 -0.28,1.31 -0.27,0.59 -0.79,1.01 -0.52,0.41 -1.27,0.64 -0.74,0.23 -1.67,0.23 v 0 q -0.34,0 -0.73,-0.03 -0.39,-0.04 -0.82,-0.11 -0.43,-0.08 -0.86,-0.2 -0.44,-0.12 -0.87,-0.31 v 0 l 0.39,-1.75 0.15,-0.07 q 0.4,0.19 0.75,0.34 0.36,0.15 0.68,0.26 0.32,0.11 0.63,0.18 0.31,0.06 0.62,0.06 z m 9.43,0.46 v 0 q -0.22,0.18 -0.48,0.39 -0.26,0.2 -0.58,0.37 -0.31,0.18 -0.65,0.3 -0.35,0.11 -0.74,0.11 v 0 q -0.5,0 -0.86,-0.2 -0.36,-0.2 -0.59,-0.51 -0.22,-0.31 -0.33,-0.67 -0.1,-0.37 -0.1,-0.7 v 0 q 0,-0.53 0.25,-0.97 0.25,-0.45 0.76,-0.77 0.5,-0.33 1.27,-0.51 0.77,-0.18 1.79,-0.18 v 0 h 0.15 V 8.91 q 0,-0.52 -0.32,-0.78 -0.32,-0.25 -0.87,-0.25 v 0 q -0.25,0 -0.53,0.06 Q 80.19,8 79.91,8.11 79.63,8.22 79.35,8.36 79.08,8.5 78.83,8.67 v 0 L 78.71,8.6 78.26,7.01 q 0.91,-0.39 1.73,-0.57 0.82,-0.18 1.65,-0.18 v 0 q 0.66,0 1.25,0.12 0.59,0.12 1.04,0.4 0.45,0.27 0.72,0.74 0.27,0.46 0.27,1.15 v 0 2.69 q 0,0.27 0.1,0.46 0.1,0.2 0.39,0.2 v 0 q 0.09,0 0.17,-0.01 0.07,-0.01 0.17,-0.05 v 0 1.11 q -0.49,0.34 -0.97,0.53 -0.49,0.18 -0.94,0.18 v 0 q -0.53,0 -0.92,-0.28 -0.39,-0.27 -0.63,-0.89 z M 82.18,11.7 V 10.12 H 82 q -0.45,0 -0.76,0.07 -0.31,0.06 -0.5,0.19 -0.19,0.13 -0.28,0.32 -0.08,0.19 -0.08,0.44 v 0 q 0,0.24 0.07,0.41 0.07,0.17 0.19,0.27 0.12,0.11 0.27,0.15 0.16,0.05 0.32,0.05 v 0 q 0.22,0 0.47,-0.08 0.24,-0.07 0.48,-0.24 z m 4.73,1.94 V 2.69 h 2.74 v 10.95 z m 8.08,0.14 v 0 q -0.99,0 -1.71,-0.29 -0.72,-0.29 -1.19,-0.78 -0.47,-0.49 -0.71,-1.14 -0.23,-0.65 -0.23,-1.36 v 0 q 0,-0.83 0.3,-1.55 0.31,-0.72 0.87,-1.26 0.57,-0.53 1.37,-0.83 0.8,-0.31 1.79,-0.31 v 0 q 0.97,0 1.69,0.29 0.72,0.28 1.2,0.77 0.48,0.49 0.72,1.14 0.24,0.65 0.24,1.38 v 0 q 0,0.85 -0.31,1.58 -0.32,0.72 -0.89,1.25 -0.57,0.52 -1.37,0.82 -0.8,0.29 -1.77,0.29 z m 0.29,-1.61 v 0 q 0.26,0 0.49,-0.12 0.23,-0.11 0.39,-0.37 0.17,-0.25 0.27,-0.64 0.09,-0.38 0.09,-0.93 v 0 Q 96.52,9.6 96.43,9.19 96.35,8.78 96.18,8.49 96.01,8.2 95.76,8.04 95.51,7.88 95.2,7.88 v 0 q -0.56,0 -0.9,0.51 -0.35,0.51 -0.35,1.56 v 0 q 0,0.54 0.1,0.95 0.09,0.41 0.27,0.7 0.17,0.28 0.42,0.42 0.24,0.15 0.54,0.15 z m 5.55,1.47 V 6.4 h 2.34 l 0.31,1.16 q 0.23,-0.19 0.52,-0.42 0.28,-0.23 0.61,-0.42 0.33,-0.2 0.7,-0.33 0.38,-0.13 0.8,-0.13 v 0 q 0.5,0 0.92,0.18 0.42,0.17 0.72,0.5 0.31,0.32 0.47,0.78 0.17,0.46 0.17,1.02 v 0 4.9 h -2.73 V 9.15 q 0,-0.28 -0.08,-0.49 -0.07,-0.21 -0.21,-0.35 -0.13,-0.14 -0.31,-0.21 -0.17,-0.07 -0.36,-0.07 v 0 q -0.31,0 -0.59,0.15 -0.29,0.15 -0.55,0.35 v 0 5.11 z"
       id="path2"
       style="fill:#ffffff" />
  </g>
  <defs
     data-v-fde0c5aa=""
     id="defs3">
    <linearGradient
       data-v-fde0c5aa=""
       gradientTransform="rotate(25)"
       id="736c27c0-f7a8-4ff5-a811-e4bc485cdae0"
       x1="0"
       y1="0"
       x2="1"
       y2="0">
      <stop
         data-v-fde0c5aa=""
         offset="0%"
         stop-color="#1E0B36"
         stop-opacity="1"
         id="stop2" />
      <stop
         data-v-fde0c5aa=""
         offset="100%"
         stop-color="#CA3782"
         stop-opacity="1"
         id="stop3" />
    </linearGradient>
  </defs>
  <g
     data-v-fde0c5aa=""
     id="844a9050-431e-44c5-9560-fe6396fa3491"
     stroke="none"
     fill="url(#736c27c0-f7a8-4ff5-a811-e4bc485cdae0)"
     transform="matrix(0.18808099,0,0,0.18808099,81.85126,-12.699794)"
     style="fill:url(#linearGradient6)">
    <path
       d="m 422.668,138.812 c -0.197,-2.607 -0.272,-5.217 -0.353,-7.981 l -0.018,-0.603 C 421.596,106.035 404.738,86.214 383.484,84.018 368.881,71.217 348.808,65.143 328.594,68.382 l -211.568,33.876 -2.885,0.462 -30.831,4.936 v 5.116 c 0,33.126 12.99,56.987 38.609,70.918 20.332,11.056 48.458,16.205 88.514,16.205 h 33.615 c 4.143,0 7.798,2.001 10.031,5.49 2.232,3.489 2.518,7.646 0.782,11.407 l -26.682,57.836 c -13.118,3.178 -25.453,9.538 -36.36,18.871 -14.438,12.353 -25.518,29.515 -31.521,48.7 H 131.36 v 47.173 c 0,28.749 20.048,52.64 45.308,54.845 l 0.18,0.261 h 142.011 l 1.792,-2.551 c 13.116,-18.669 20.049,-41.134 20.049,-64.967 0,-5.163 -0.337,-10.272 -0.991,-15.312 h 65.98 V 251.167 c 4.789,-1.539 9.226,-4.346 12.984,-8.291 6.06,-6.358 9.611,-14.92 10.001,-24.11 l 0.016,-0.354 z M 95.423,117.87 l 18.719,-2.998 v 19.504 h -16.48 c -1.23,-5.105 -1.974,-10.6 -2.239,-16.506 z m 47.937,236.329 h 15.974 c -1.88,8.047 -8.055,14.453 -15.974,16.661 z m 169.203,78.279 H 183.066 l -0.04,-0.056 -3.001,-0.043 C 159.808,432.09 143.36,412.797 143.36,389.372 v -7.085 c 15.746,-2.868 27.724,-16.675 27.724,-33.236 v -0.983 c 5.152,-17.975 15.232,-34.065 28.537,-45.45 6.709,-5.74 14.031,-10.171 21.759,-13.248 a 71.543,71.543 0 0 1 15.144,-4.18 71.661,71.661 0 0 1 11.351,-0.918 c 9.625,0 19.049,1.927 28.01,5.728 l 8.343,3.538 v -35.944 c 21.395,2.934 37.927,21.331 37.927,43.519 v 39.262 l 0.36,0.993 a 101.526,101.526 0 0 1 2.607,8.282 102.69,102.69 0 0 1 2.459,12 106.488,106.488 0 0 1 1.119,15.312 c -10e-4,20.268 -5.57,39.394 -16.137,55.516 z m 81.125,-82.83 h -56.205 c -0.921,-3.846 -2.015,-7.645 -3.33,-11.372 v -37.165 c 0,-30.838 -25.089,-55.928 -55.927,-55.928 h -6 v 30.729 a 82.96,82.96 0 0 0 -24.353,-3.641 c -1.837,0 -3.663,0.08 -5.481,0.197 l 23.366,-50.649 a 23.804,23.804 0 0 0 -1.571,-22.903 23.806,23.806 0 0 0 -20.139,-11.021 h -33.615 c -60.763,0 -95.289,-12.743 -108.64,-41.519 h 24.348 V 112.95 l 204.35,-32.72 c 12.521,-2.004 24.968,0.332 35.464,6.089 -15.49,5.82 -27.494,21.241 -29.67,40.25 l -0.087,0.762 c -0.31,2.708 -0.603,5.265 -1.011,7.812 l -12.739,79.38 -0.07,0.696 c -0.822,19.345 12.616,35.683 29.956,36.42 l 41.354,0.833 z m 16.298,-115.051 a 20.364,20.364 0 0 1 -4.298,3.442 c -2.917,1.748 -6.142,2.624 -9.443,2.483 l -2.557,-0.052 -40.907,-0.824 c -10.605,-0.491 -18.81,-11.022 -18.427,-23.585 l 12.681,-79.017 c 0.452,-2.814 0.774,-5.628 1.085,-8.35 l 0.087,-0.759 c 2.043,-17.847 15.155,-31.505 30.324,-32.096 a 26.442,26.442 0 0 1 2.145,-0.006 c 6.775,0.288 13.003,3.175 17.986,7.818 6.835,6.37 11.326,16.051 11.642,26.923 l 0.017,0.6 c 0.08,2.78 0.163,5.654 0.382,8.541 l 5.967,78.876 c -0.338,6.157 -2.703,11.829 -6.684,16.006 z"
       id="path3"
       style="fill:url(#linearGradient4)" />
    <path
       d="m 204.361,380 h 57.9 v 12 h -57.9 z m 55.781,38.35 -55.93,-10.736 2.263,-11.785 55.93,10.735 z M 196.48,339.601 h 16 v 17.962 h -16 z m 70.677,-224.926 h 20 v 21.962 h -20 z"
       id="path4"
       style="fill:url(#linearGradient5)" />
  </g>
  <!---->
</svg>
