<svg data-v-fde0c5aa="" xmlns="http://www.w3.org/2000/svg" viewBox="0 0 300 300" class="font"><!----><defs data-v-fde0c5aa=""><!----></defs><rect data-v-fde0c5aa="" fill="transparent" x="0" y="0" width="300px" height="300px" class="logo-background-square"></rect><defs data-v-fde0c5aa=""><linearGradient data-v-fde0c5aa="" gradientTransform="rotate(25)" id="69a6d40a-6c58-432b-8e25-6da02801d728" x1="0%" y1="0%" x2="100%" y2="0%"><stop data-v-fde0c5aa="" offset="0%" stop-color="#1E0B36" stop-opacity="1"></stop><stop data-v-fde0c5aa="" offset="100%" stop-color="#CA3782" stop-opacity="1"></stop></linearGradient></defs><g data-v-fde0c5aa="" id="1a68a1eb-5e43-4f8c-a866-cea5a5814ae2" fill="url(#69a6d40a-6c58-432b-8e25-6da02801d728)" transform="matrix(2.051664727834164,0,0,2.051664727834164,37.620068984194056,129.48335369996832)"><path d="M1.16 13.64L1.16 3.63L5.26 3.63Q6.58 3.63 7.60 3.95Q8.61 4.28 9.30 4.88Q9.99 5.49 10.35 6.35Q10.71 7.21 10.71 8.29L10.71 8.29Q10.71 8.91 10.58 9.56Q10.45 10.20 10.16 10.80Q9.87 11.40 9.42 11.92Q8.97 12.43 8.33 12.82Q7.69 13.21 6.85 13.43Q6.00 13.65 4.94 13.65L4.94 13.65L1.16 13.64ZM3.94 5.26L3.94 12.01L5.20 12.01Q5.89 12.01 6.38 11.75Q6.88 11.48 7.21 11.02Q7.53 10.55 7.69 9.90Q7.85 9.26 7.85 8.50L7.85 8.50Q7.85 7.66 7.66 7.05Q7.48 6.44 7.13 6.04Q6.77 5.65 6.25 5.46Q5.74 5.26 5.07 5.26L5.07 5.26L3.94 5.26ZM15.77 13.78L15.77 13.78Q14.79 13.78 14.06 13.49Q13.34 13.20 12.87 12.71Q12.40 12.22 12.17 11.57Q11.94 10.92 11.94 10.21L11.94 10.21Q11.94 9.38 12.24 8.66Q12.54 7.94 13.11 7.40Q13.67 6.87 14.47 6.57Q15.27 6.26 16.27 6.26L16.27 6.26Q17.23 6.26 17.95 6.55Q18.68 6.83 19.15 7.32Q19.63 7.81 19.87 8.46Q20.11 9.11 20.11 9.84L20.11 9.84Q20.11 10.69 19.80 11.42Q19.49 12.14 18.92 12.67Q18.35 13.19 17.55 13.49Q16.75 13.78 15.77 13.78ZM16.06 12.17L16.06 12.17Q16.32 12.17 16.55 12.05Q16.78 11.94 16.95 11.68Q17.12 11.43 17.21 11.04Q17.31 10.66 17.31 10.11L17.31 10.11Q17.31 9.60 17.22 9.19Q17.13 8.78 16.96 8.49Q16.80 8.20 16.55 8.04Q16.30 7.88 15.98 7.88L15.98 7.88Q15.43 7.88 15.08 8.39Q14.74 8.90 14.74 9.95L14.74 9.95Q14.74 10.49 14.83 10.90Q14.93 11.31 15.10 11.60Q15.28 11.88 15.52 12.02Q15.76 12.17 16.06 12.17ZM24.35 8.56L24.35 11.99Q24.61 12.11 24.81 12.14Q25.01 12.17 25.14 12.17L25.14 12.17Q25.55 12.17 25.85 11.98Q26.15 11.79 26.35 11.47Q26.54 11.16 26.64 10.77Q26.73 10.38 26.73 9.97L26.73 9.97Q26.73 9.50 26.64 9.14Q26.55 8.78 26.39 8.53Q26.23 8.29 26.01 8.16Q25.79 8.03 25.52 8.03L25.52 8.03Q25.23 8.03 24.91 8.17Q24.59 8.31 24.35 8.56L24.35 8.56ZM23.98 6.40L24.27 7.48Q24.53 7.25 24.80 7.03Q25.07 6.81 25.37 6.64Q25.67 6.47 26.00 6.36Q26.33 6.26 26.71 6.26L26.71 6.26Q27.36 6.26 27.89 6.56Q28.41 6.85 28.77 7.33Q29.13 7.81 29.33 8.43Q29.52 9.04 29.52 9.69L29.52 9.69Q29.52 10.55 29.20 11.29Q28.88 12.04 28.32 12.59Q27.77 13.15 27.02 13.46Q26.27 13.78 25.41 13.78L25.41 13.78Q25.11 13.78 24.81 13.74Q24.51 13.71 24.35 13.64L24.35 13.64L24.35 17.31L21.62 17.31L21.62 6.40L23.98 6.40ZM37.60 11.73L37.60 12.84Q37.19 13.13 36.78 13.31Q36.38 13.49 35.99 13.60Q35.61 13.70 35.24 13.74Q34.86 13.78 34.51 13.78L34.51 13.78Q33.58 13.78 32.85 13.55Q32.12 13.31 31.62 12.87Q31.12 12.42 30.87 11.78Q30.61 11.14 30.61 10.32L30.61 10.32Q30.61 9.35 30.95 8.60Q31.29 7.85 31.86 7.33Q32.42 6.81 33.17 6.54Q33.91 6.26 34.73 6.26L34.73 6.26Q35.46 6.26 36.06 6.48Q36.66 6.69 37.10 7.11Q37.53 7.53 37.77 8.16Q38.01 8.78 38.01 9.58L38.01 9.58Q38.01 9.89 37.98 10.10Q37.95 10.32 37.93 10.43L37.93 10.43L33.41 10.43Q33.41 10.88 33.57 11.18Q33.72 11.48 34.01 11.67Q34.30 11.85 34.70 11.94Q35.11 12.02 35.62 12.02L35.62 12.02Q36.03 12.02 36.56 11.96Q37.08 11.89 37.60 11.73L37.60 11.73ZM33.41 9.58L35.55 9.58Q35.55 9.13 35.47 8.81Q35.40 8.48 35.26 8.27Q35.13 8.07 34.94 7.97Q34.74 7.88 34.51 7.88L34.51 7.88Q34.00 7.88 33.70 8.30Q33.41 8.73 33.41 9.58L33.41 9.58ZM45.16 5.26L45.16 13.64L42.38 13.64L42.38 3.63L46.27 3.63Q47.33 3.63 48.12 3.86Q48.91 4.09 49.44 4.51Q49.96 4.94 50.23 5.53Q50.49 6.13 50.49 6.85L50.49 6.85Q50.49 7.65 50.21 8.30Q49.93 8.96 49.43 9.42Q48.93 9.88 48.25 10.13Q47.58 10.38 46.79 10.38L46.79 10.38Q46.68 10.38 46.57 10.38Q46.46 10.37 46.33 10.35L46.33 10.35L46.46 8.87Q46.49 8.88 46.57 8.88Q46.65 8.89 46.70 8.89L46.70 8.89Q47.02 8.89 47.23 8.74Q47.44 8.59 47.57 8.34Q47.70 8.09 47.76 7.79Q47.81 7.48 47.81 7.16L47.81 7.16Q47.81 6.64 47.69 6.28Q47.58 5.92 47.36 5.69Q47.14 5.47 46.83 5.37Q46.53 5.26 46.14 5.26L46.14 5.26L45.16 5.26ZM58.39 11.73L58.39 12.84Q57.98 13.13 57.57 13.31Q57.17 13.49 56.78 13.60Q56.40 13.70 56.02 13.74Q55.65 13.78 55.30 13.78L55.30 13.78Q54.37 13.78 53.64 13.55Q52.91 13.31 52.41 12.87Q51.91 12.42 51.66 11.78Q51.40 11.14 51.40 10.32L51.40 10.32Q51.40 9.35 51.74 8.60Q52.08 7.85 52.64 7.33Q53.21 6.81 53.96 6.54Q54.70 6.26 55.52 6.26L55.52 6.26Q56.25 6.26 56.85 6.48Q57.45 6.69 57.88 7.11Q58.32 7.53 58.56 8.16Q58.80 8.78 58.80 9.58L58.80 9.58Q58.80 9.89 58.77 10.10Q58.74 10.32 58.71 10.43L58.71 10.43L54.20 10.43Q54.20 10.88 54.36 11.18Q54.51 11.48 54.80 11.67Q55.08 11.85 55.49 11.94Q55.90 12.02 56.40 12.02L56.40 12.02Q56.82 12.02 57.35 11.96Q57.87 11.89 58.39 11.73L58.39 11.73ZM54.20 9.58L56.33 9.58Q56.33 9.13 56.26 8.81Q56.18 8.48 56.05 8.27Q55.92 8.07 55.72 7.97Q55.53 7.88 55.30 7.88L55.30 7.88Q54.78 7.88 54.49 8.30Q54.20 8.73 54.20 9.58L54.20 9.58ZM60.86 11.07L60.86 8.01L59.41 8.01L59.58 6.89Q59.94 6.75 60.21 6.62Q60.48 6.50 60.68 6.37Q60.89 6.23 61.04 6.08Q61.20 5.92 61.35 5.71Q61.50 5.50 61.66 5.22Q61.82 4.94 62.04 4.57L62.04 4.57L63.40 4.57L63.40 6.40L65.95 6.40L65.59 8.01L63.59 8.01L63.59 10.79Q63.59 11.47 63.94 11.74Q64.29 12.02 64.96 12.02L64.96 12.02Q65.19 12.02 65.45 11.98Q65.71 11.94 65.95 11.84L65.95 11.84L65.95 12.95Q65.39 13.38 64.69 13.58Q63.99 13.78 63.31 13.78L63.31 13.78Q62.62 13.78 62.16 13.59Q61.69 13.40 61.40 13.05Q61.11 12.69 60.99 12.20Q60.86 11.70 60.86 11.07L60.86 11.07ZM72.86 12.15L72.86 12.15Q73.13 12.15 73.40 12.09Q73.67 12.04 73.88 11.91Q74.09 11.78 74.22 11.57Q74.35 11.37 74.35 11.07L74.35 11.07Q74.35 10.71 74.16 10.45Q73.97 10.20 73.66 10.00Q73.36 9.81 72.97 9.65Q72.58 9.48 72.17 9.30Q71.76 9.13 71.37 8.90Q70.98 8.68 70.67 8.37Q70.36 8.05 70.17 7.62Q69.99 7.18 69.99 6.58L69.99 6.58Q69.99 5.88 70.26 5.30Q70.53 4.73 71.04 4.33Q71.54 3.93 72.27 3.71Q72.99 3.49 73.89 3.49L73.89 3.49Q74.12 3.49 74.45 3.51Q74.77 3.53 75.14 3.57Q75.50 3.61 75.89 3.67Q76.27 3.74 76.62 3.83L76.62 3.83L76.23 5.58L76.11 5.63Q75.81 5.50 75.50 5.40Q75.20 5.30 74.90 5.24Q74.61 5.18 74.36 5.15Q74.10 5.13 73.90 5.13L73.90 5.13Q73.29 5.13 72.93 5.37Q72.56 5.62 72.56 6.11L72.56 6.11Q72.56 6.47 72.75 6.71Q72.94 6.96 73.25 7.15Q73.55 7.34 73.95 7.50Q74.34 7.66 74.75 7.84Q75.15 8.02 75.55 8.24Q75.94 8.46 76.25 8.78Q76.56 9.10 76.74 9.54Q76.93 9.98 76.93 10.59L76.93 10.59Q76.93 11.31 76.65 11.90Q76.38 12.49 75.86 12.91Q75.34 13.32 74.59 13.55Q73.85 13.78 72.92 13.78L72.92 13.78Q72.58 13.78 72.19 13.75Q71.80 13.71 71.37 13.64Q70.94 13.56 70.51 13.44Q70.07 13.32 69.64 13.13L69.64 13.13L70.03 11.38L70.18 11.31Q70.58 11.50 70.93 11.65Q71.29 11.80 71.61 11.91Q71.93 12.02 72.24 12.09Q72.55 12.15 72.86 12.15ZM82.29 12.61L82.29 12.61Q82.07 12.79 81.81 13.00Q81.55 13.20 81.23 13.37Q80.92 13.55 80.58 13.67Q80.23 13.78 79.84 13.78L79.84 13.78Q79.34 13.78 78.98 13.58Q78.62 13.38 78.39 13.07Q78.17 12.76 78.06 12.40Q77.96 12.03 77.96 11.70L77.96 11.70Q77.96 11.17 78.21 10.73Q78.46 10.28 78.97 9.96Q79.47 9.63 80.24 9.45Q81.01 9.27 82.03 9.27L82.03 9.27L82.18 9.27L82.18 8.91Q82.18 8.39 81.86 8.13Q81.54 7.88 80.99 7.88L80.99 7.88Q80.74 7.88 80.46 7.94Q80.19 8.00 79.91 8.11Q79.63 8.22 79.35 8.36Q79.08 8.50 78.83 8.67L78.83 8.67L78.71 8.60L78.26 7.01Q79.17 6.62 79.99 6.44Q80.81 6.26 81.64 6.26L81.64 6.26Q82.30 6.26 82.89 6.38Q83.48 6.50 83.93 6.78Q84.38 7.05 84.65 7.52Q84.92 7.98 84.92 8.67L84.92 8.67L84.92 11.36Q84.92 11.63 85.02 11.82Q85.12 12.02 85.41 12.02L85.41 12.02Q85.50 12.02 85.58 12.01Q85.65 12.00 85.75 11.96L85.75 11.96L85.75 13.07Q85.26 13.41 84.78 13.60Q84.29 13.78 83.84 13.78L83.84 13.78Q83.31 13.78 82.92 13.50Q82.53 13.23 82.29 12.61ZM82.18 11.70L82.18 10.12L82.00 10.12Q81.55 10.12 81.24 10.19Q80.93 10.25 80.74 10.38Q80.55 10.51 80.46 10.70Q80.38 10.89 80.38 11.14L80.38 11.14Q80.38 11.38 80.45 11.55Q80.52 11.72 80.64 11.82Q80.76 11.93 80.91 11.97Q81.07 12.02 81.23 12.02L81.23 12.02Q81.45 12.02 81.70 11.94Q81.94 11.87 82.18 11.70L82.18 11.70ZM86.91 13.64L86.91 2.69L89.65 2.69L89.65 13.64L86.91 13.64ZM94.99 13.78L94.99 13.78Q94.00 13.78 93.28 13.49Q92.56 13.20 92.09 12.71Q91.62 12.22 91.38 11.57Q91.15 10.92 91.15 10.21L91.15 10.21Q91.15 9.38 91.45 8.66Q91.76 7.94 92.32 7.40Q92.89 6.87 93.69 6.57Q94.49 6.26 95.48 6.26L95.48 6.26Q96.45 6.26 97.17 6.55Q97.89 6.83 98.37 7.32Q98.85 7.81 99.09 8.46Q99.33 9.11 99.33 9.84L99.33 9.84Q99.33 10.69 99.02 11.42Q98.70 12.14 98.13 12.67Q97.56 13.19 96.76 13.49Q95.96 13.78 94.99 13.78ZM95.28 12.17L95.28 12.17Q95.54 12.17 95.77 12.05Q96.00 11.94 96.16 11.68Q96.33 11.43 96.43 11.04Q96.52 10.66 96.52 10.11L96.52 10.11Q96.52 9.60 96.43 9.19Q96.35 8.78 96.18 8.49Q96.01 8.20 95.76 8.04Q95.51 7.88 95.20 7.88L95.20 7.88Q94.64 7.88 94.30 8.39Q93.95 8.90 93.95 9.95L93.95 9.95Q93.95 10.49 94.05 10.90Q94.14 11.31 94.32 11.60Q94.49 11.88 94.74 12.02Q94.98 12.17 95.28 12.17ZM100.83 13.64L100.83 6.40L103.17 6.40L103.48 7.56Q103.71 7.37 104.00 7.14Q104.28 6.91 104.61 6.72Q104.94 6.52 105.31 6.39Q105.69 6.26 106.11 6.26L106.11 6.26Q106.61 6.26 107.03 6.44Q107.45 6.61 107.75 6.94Q108.06 7.26 108.22 7.72Q108.39 8.18 108.39 8.74L108.39 8.74L108.39 13.64L105.66 13.64L105.66 9.15Q105.66 8.87 105.58 8.66Q105.51 8.45 105.37 8.31Q105.24 8.17 105.06 8.10Q104.89 8.03 104.70 8.03L104.70 8.03Q104.39 8.03 104.11 8.18Q103.82 8.33 103.56 8.53L103.56 8.53L103.56 13.64L100.83 13.64Z"></path></g><!----><!----></svg>